<svg width="21" height="17" viewBox="0 0 21 17" fill="none" xmlns="http://www.w3.org/2000/svg">
<path d="M3.26368 0H17.4063C18.2719 0 19.102 0.343852 19.7141 0.955911C20.3262 1.56797 20.67 2.3981 20.67 3.26368V13.0547C20.67 13.9203 20.3262 14.7505 19.7141 15.3625C19.102 15.9746 18.2719 16.3184 17.4063 16.3184H3.26368C2.3981 16.3184 1.56797 15.9746 0.955911 15.3625C0.343852 14.7505 0 13.9203 0 13.0547V3.26368C0 2.3981 0.343852 1.56797 0.955911 0.955911C1.56797 0.343852 2.3981 0 3.26368 0ZM3.26368 1.08789C2.71974 1.08789 2.24106 1.27284 1.87118 1.5992L10.335 7.07132L18.7988 1.5992C18.4289 1.27284 17.9503 1.08789 17.4063 1.08789H3.26368ZM10.335 8.38767L1.22932 2.4804C1.14229 2.71974 1.08789 2.99171 1.08789 3.26368V13.0547C1.08789 13.6318 1.31713 14.1852 1.72517 14.5933C2.13321 15.0013 2.68663 15.2305 3.26368 15.2305H17.4063C17.9834 15.2305 18.5368 15.0013 18.9448 14.5933C19.3529 14.1852 19.5821 13.6318 19.5821 13.0547V3.26368C19.5821 2.99171 19.5277 2.71974 19.4407 2.4804L10.335 8.38767Z" fill="black"/>
</svg>
