<svg width="21" height="27" viewBox="0 0 21 27" fill="none" xmlns="http://www.w3.org/2000/svg">
<path fill-rule="evenodd" clip-rule="evenodd" d="M10.6541 24.5056C12.1399 23.1574 13.515 21.692 14.7661 20.1235C17.4016 16.8125 19.0048 13.5479 19.1133 10.6451C19.1562 9.4653 18.9609 8.289 18.5391 7.18642C18.1173 6.08383 17.4775 5.07758 16.6581 4.22778C15.8386 3.37797 14.8563 2.70204 13.7698 2.24037C12.6833 1.7787 11.5149 1.54076 10.3344 1.54076C9.15383 1.54076 7.98541 1.7787 6.8989 2.24037C5.81238 2.70204 4.83007 3.37797 4.01063 4.22778C3.1912 5.07758 2.55145 6.08383 2.1296 7.18642C1.70776 8.289 1.51248 9.4653 1.55542 10.6451C1.66523 13.5479 3.26974 16.8125 5.90387 20.1235C7.155 21.692 8.5301 23.1574 10.0159 24.5056C10.1589 24.6348 10.2652 24.7286 10.335 24.7872L10.6541 24.5056ZM9.3816 26.0106C9.3816 26.0106 0 18.1095 0 10.335C0 7.59399 1.08886 4.96524 3.02705 3.02705C4.96524 1.08886 7.59399 0 10.335 0C13.076 0 15.7048 1.08886 17.643 3.02705C19.5811 4.96524 20.67 7.59399 20.67 10.335C20.67 18.1095 11.2884 26.0106 11.2884 26.0106C10.7665 26.4912 9.90739 26.486 9.3816 26.0106ZM10.335 13.9523C11.2944 13.9523 12.2144 13.5711 12.8928 12.8928C13.5711 12.2144 13.9523 11.2944 13.9523 10.335C13.9523 9.37565 13.5711 8.45558 12.8928 7.77722C12.2144 7.09885 11.2944 6.71775 10.335 6.71775C9.37565 6.71775 8.45558 7.09885 7.77722 7.77722C7.09885 8.45558 6.71775 9.37565 6.71775 10.335C6.71775 11.2944 7.09885 12.2144 7.77722 12.8928C8.45558 13.5711 9.37565 13.9523 10.335 13.9523ZM10.335 15.5025C8.96449 15.5025 7.65012 14.9581 6.68103 13.989C5.71193 13.0199 5.1675 11.7055 5.1675 10.335C5.1675 8.96449 5.71193 7.65012 6.68103 6.68103C7.65012 5.71193 8.96449 5.1675 10.335 5.1675C11.7055 5.1675 13.0199 5.71193 13.989 6.68103C14.9581 7.65012 15.5025 8.96449 15.5025 10.335C15.5025 11.7055 14.9581 13.0199 13.989 13.989C13.0199 14.9581 11.7055 15.5025 10.335 15.5025Z" fill="black"/>
</svg>
