<svg width="16" height="21" viewBox="0 0 16 21" fill="none" xmlns="http://www.w3.org/2000/svg">
<path d="M7.87429 15.9304C8.39638 15.9304 8.8971 15.723 9.26628 15.3538C9.63545 14.9846 9.84286 14.4839 9.84286 13.9618C9.84286 13.4397 9.63545 12.939 9.26628 12.5698C8.8971 12.2007 8.39638 11.9933 7.87429 11.9933C7.35219 11.9933 6.85147 12.2007 6.4823 12.5698C6.11312 12.939 5.90571 13.4397 5.90571 13.9618C5.90571 14.4839 6.11312 14.9846 6.4823 15.3538C6.85147 15.723 7.35219 15.9304 7.87429 15.9304ZM13.78 7.07182C14.3021 7.07182 14.8028 7.27923 15.172 7.64841C15.5412 8.01758 15.7486 8.5183 15.7486 9.04039V18.8833C15.7486 19.4053 15.5412 19.9061 15.172 20.2752C14.8028 20.6444 14.3021 20.8518 13.78 20.8518H1.96857C1.44647 20.8518 0.94576 20.6444 0.576581 20.2752C0.207402 19.9061 0 19.4053 0 18.8833V9.04039C0 8.5183 0.207402 8.01758 0.576581 7.64841C0.94576 7.27923 1.44647 7.07182 1.96857 7.07182H2.95286V5.10325C2.95286 3.79801 3.47136 2.54622 4.39431 1.62328C5.31726 0.70033 6.56904 0.181824 7.87429 0.181824C8.52058 0.181824 9.16054 0.30912 9.75763 0.556445C10.3547 0.80377 10.8973 1.16628 11.3543 1.62328C11.8113 2.08027 12.1738 2.62281 12.4211 3.2199C12.6684 3.817 12.7957 4.45696 12.7957 5.10325V7.07182H13.78ZM7.87429 2.1504C7.09114 2.1504 6.34007 2.4615 5.7863 3.01527C5.23253 3.56904 4.92143 4.32011 4.92143 5.10325V7.07182H10.8271V5.10325C10.8271 4.32011 10.516 3.56904 9.96227 3.01527C9.4085 2.4615 8.65743 2.1504 7.87429 2.1504Z" fill="black"/>
</svg>
