<svg width="21" height="21" viewBox="0 0 21 21" fill="none" xmlns="http://www.w3.org/2000/svg">
<path d="M10.335 0.181824C11.7055 0.181824 13.0199 0.726255 13.989 1.69535C14.9581 2.66444 15.5025 3.97882 15.5025 5.34932C15.5025 6.71983 14.9581 8.0342 13.989 9.0033C13.0199 9.97239 11.7055 10.5168 10.335 10.5168C8.96449 10.5168 7.65012 9.97239 6.68103 9.0033C5.71193 8.0342 5.1675 6.71983 5.1675 5.34932C5.1675 3.97882 5.71193 2.66444 6.68103 1.69535C7.65012 0.726255 8.96449 0.181824 10.335 0.181824ZM10.335 13.1006C16.0451 13.1006 20.67 15.413 20.67 18.2681V20.8518H0V18.2681C0 15.413 4.62491 13.1006 10.335 13.1006Z" fill="black"/>
</svg>
