<svg width="168" height="56" viewBox="0 0 168 56" fill="none" xmlns="http://www.w3.org/2000/svg">
<rect x="0.5" y="0.5" width="167" height="55" rx="9.5" stroke="url(#paint0_linear_27_128)"/>
<path d="M26.5092 17.1818V39H21.8963V17.1818H26.5092ZM38.9231 22.6364V26.0455H29.0687V22.6364H38.9231ZM31.3059 18.7159H35.8443V33.9716C35.8443 34.3906 35.9082 34.7173 36.036 34.9517C36.1639 35.179 36.3414 35.3388 36.5687 35.4311C36.8031 35.5234 37.073 35.5696 37.3784 35.5696C37.5914 35.5696 37.8045 35.5518 38.0176 35.5163C38.2306 35.4737 38.394 35.4418 38.5076 35.4205L39.2214 38.7976C38.9941 38.8686 38.6745 38.9503 38.2626 39.0426C37.8507 39.142 37.35 39.2024 36.7605 39.2237C35.6667 39.2663 34.7079 39.1207 33.8841 38.7869C33.0673 38.4531 32.4316 37.9347 31.9771 37.2315C31.5225 36.5284 31.2988 35.6406 31.3059 34.5682V18.7159ZM49.161 39.3196C47.4778 39.3196 46.0289 38.9787 44.8145 38.2969C43.6071 37.608 42.6767 36.6349 42.0233 35.3778C41.3699 34.1136 41.0431 32.6186 41.0431 30.8928C41.0431 29.2095 41.3699 27.7322 42.0233 26.4609C42.6767 25.1896 43.5964 24.1989 44.7825 23.4886C45.9757 22.7784 47.3748 22.4233 48.9799 22.4233C50.0595 22.4233 51.0645 22.5973 51.9949 22.9453C52.9324 23.2862 53.7491 23.8011 54.4451 24.4901C55.1483 25.179 55.6951 26.0455 56.0858 27.0895C56.4764 28.1264 56.6717 29.3409 56.6717 30.733V31.9794H42.8542V29.1669H52.3997C52.3997 28.5135 52.2576 27.9347 51.9735 27.4304C51.6895 26.9261 51.2953 26.532 50.791 26.2479C50.2939 25.9567 49.715 25.8111 49.0545 25.8111C48.3656 25.8111 47.7548 25.9709 47.2221 26.2905C46.6966 26.603 46.2846 27.0256 45.9863 27.5582C45.688 28.0838 45.5353 28.6697 45.5282 29.3161V31.9901C45.5282 32.7997 45.6774 33.4993 45.9757 34.0888C46.2811 34.6783 46.7108 35.1328 47.2647 35.4524C47.8187 35.772 48.4757 35.9318 49.2356 35.9318C49.7399 35.9318 50.2015 35.8608 50.6206 35.7188C51.0396 35.5767 51.3983 35.3636 51.6966 35.0795C51.9949 34.7955 52.2221 34.4474 52.3784 34.0355L56.5758 34.3125C56.3627 35.321 55.926 36.2017 55.2654 36.9545C54.612 37.7003 53.7669 38.2827 52.7299 38.7017C51.7001 39.1136 50.5105 39.3196 49.161 39.3196ZM59.6333 39V22.6364H63.9586V25.5234H64.1504C64.4913 24.5646 65.0595 23.8082 65.8549 23.2543C66.6504 22.7003 67.6021 22.4233 68.7101 22.4233C69.8322 22.4233 70.7875 22.7038 71.5758 23.2649C72.3642 23.8189 72.8897 24.5717 73.1525 25.5234H73.323C73.6568 24.5859 74.2605 23.8366 75.1341 23.2756C76.0147 22.7074 77.0552 22.4233 78.2555 22.4233C79.7825 22.4233 81.0218 22.9098 81.9735 23.8828C82.9324 24.8487 83.4118 26.2195 83.4118 27.995V39H78.8841V28.8899C78.8841 27.9808 78.6426 27.299 78.1596 26.8445C77.6767 26.3899 77.073 26.1626 76.3485 26.1626C75.5247 26.1626 74.8819 26.4254 74.4203 26.951C73.9586 27.4695 73.7278 28.1548 73.7278 29.0071V39H69.3279V28.794C69.3279 27.9915 69.0971 27.3523 68.6355 26.8764C68.1809 26.4006 67.5808 26.1626 66.8351 26.1626C66.3308 26.1626 65.8762 26.2905 65.4714 26.5462C65.0737 26.7947 64.7576 27.1463 64.5233 27.6009C64.2889 28.0483 64.1717 28.5739 64.1717 29.1776V39H59.6333ZM87.0819 39V17.1818H95.6898C97.3446 17.1818 98.7544 17.4979 99.9192 18.13C101.084 18.755 101.972 19.625 102.583 20.7401C103.2 21.848 103.509 23.1264 103.509 24.5753C103.509 26.0241 103.197 27.3026 102.572 28.4105C101.947 29.5185 101.041 30.3814 99.8553 30.9993C98.6763 31.6172 97.2488 31.9261 95.5726 31.9261H90.0861V28.2294H94.8269C95.7147 28.2294 96.4462 28.0767 97.0215 27.7713C97.6039 27.4588 98.0371 27.0291 98.3212 26.4822C98.6124 25.9283 98.758 25.2926 98.758 24.5753C98.758 23.8509 98.6124 23.2187 98.3212 22.679C98.0371 22.1321 97.6039 21.7095 97.0215 21.4112C96.4391 21.1058 95.7005 20.9531 94.8056 20.9531H91.6948V39H87.0819ZM126.555 28.0909C126.555 30.4702 126.104 32.4943 125.202 34.1634C124.308 35.8324 123.086 37.1072 121.538 37.9879C119.996 38.8615 118.263 39.2983 116.339 39.2983C114.4 39.2983 112.66 38.858 111.119 37.9773C109.577 37.0966 108.359 35.8217 107.464 34.1527C106.57 32.4837 106.122 30.4631 106.122 28.0909C106.122 25.7116 106.57 23.6875 107.464 22.0185C108.359 20.3494 109.577 19.0781 111.119 18.2045C112.66 17.3239 114.4 16.8835 116.339 16.8835C118.263 16.8835 119.996 17.3239 121.538 18.2045C123.086 19.0781 124.308 20.3494 125.202 22.0185C126.104 23.6875 126.555 25.7116 126.555 28.0909ZM121.879 28.0909C121.879 26.5497 121.648 25.25 121.186 24.1918C120.732 23.1335 120.089 22.331 119.258 21.7841C118.427 21.2372 117.454 20.9638 116.339 20.9638C115.224 20.9638 114.251 21.2372 113.42 21.7841C112.589 22.331 111.942 23.1335 111.481 24.1918C111.026 25.25 110.799 26.5497 110.799 28.0909C110.799 29.6321 111.026 30.9318 111.481 31.9901C111.942 33.0483 112.589 33.8509 113.42 34.3977C114.251 34.9446 115.224 35.218 116.339 35.218C117.454 35.218 118.427 34.9446 119.258 34.3977C120.089 33.8509 120.732 33.0483 121.186 31.9901C121.648 30.9318 121.879 29.6321 121.879 28.0909ZM141.808 23.4567C141.723 22.5973 141.357 21.9297 140.711 21.4538C140.065 20.978 139.188 20.7401 138.08 20.7401C137.327 20.7401 136.691 20.8466 136.173 21.0597C135.654 21.2656 135.257 21.5533 134.98 21.9226C134.71 22.2919 134.575 22.7109 134.575 23.1797C134.561 23.5703 134.642 23.9112 134.82 24.2024C135.004 24.4936 135.257 24.7457 135.576 24.9588C135.896 25.1648 136.265 25.3459 136.684 25.5021C137.103 25.6513 137.551 25.7791 138.026 25.8857L139.987 26.3544C140.938 26.5675 141.812 26.8516 142.607 27.2067C143.403 27.5618 144.092 27.9986 144.674 28.517C145.257 29.0355 145.708 29.6463 146.027 30.3494C146.354 31.0526 146.521 31.8587 146.528 32.7678C146.521 34.103 146.18 35.2607 145.505 36.2408C144.838 37.2138 143.872 37.9702 142.607 38.5099C141.35 39.0426 139.834 39.3089 138.058 39.3089C136.297 39.3089 134.763 39.0391 133.456 38.4993C132.156 37.9595 131.141 37.1605 130.409 36.1023C129.685 35.0369 129.305 33.7195 129.269 32.1499H133.733C133.783 32.8814 133.992 33.4922 134.362 33.9822C134.738 34.4652 135.239 34.831 135.864 35.0795C136.496 35.321 137.21 35.4418 138.005 35.4418C138.786 35.4418 139.465 35.3281 140.04 35.1009C140.622 34.8736 141.073 34.5575 141.393 34.1527C141.713 33.7479 141.872 33.2827 141.872 32.7571C141.872 32.267 141.727 31.8551 141.436 31.5213C141.151 31.1875 140.732 30.9034 140.178 30.669C139.632 30.4347 138.96 30.2216 138.165 30.0298L135.789 29.4332C133.95 28.9858 132.497 28.2862 131.432 27.3345C130.367 26.3828 129.838 25.1009 129.845 23.4886C129.838 22.1676 130.189 21.0135 130.899 20.0263C131.617 19.0391 132.6 18.2685 133.85 17.7145C135.1 17.1605 136.521 16.8835 138.112 16.8835C139.731 16.8835 141.144 17.1605 142.352 17.7145C143.566 18.2685 144.511 19.0391 145.186 20.0263C145.86 21.0135 146.208 22.157 146.23 23.4567H141.808Z" fill="url(#paint1_linear_27_128)"/>
<defs>
<linearGradient id="paint0_linear_27_128" x1="84" y1="0" x2="84" y2="56" gradientUnits="userSpaceOnUse">
<stop stop-color="#2CC46E"/>
<stop offset="1" stop-color="#BEDC7C"/>
</linearGradient>
<linearGradient id="paint1_linear_27_128" x1="25.1736" y1="21.4369" x2="153.544" y2="34.7165" gradientUnits="userSpaceOnUse">
<stop stop-color="#2CC56F"/>
<stop offset="1" stop-color="#BEDC7C"/>
</linearGradient>
</defs>
</svg>
